<?xml version="1.0" standalone="no"?><!DOCTYPE svg PUBLIC "-//W3C//DTD SVG 1.1//EN" "http://www.w3.org/Graphics/SVG/1.1/DTD/svg11.dtd"><svg t="1780297638748" class="icon" viewBox="0 0 1024 1024" version="1.1" xmlns="http://www.w3.org/2000/svg" p-id="22373" xmlns:xlink="http://www.w3.org/1999/xlink" width="200" height="200"><path d="M510.00832 356.85376c-84.00896 0-152.35584 68.34688-152.35584 152.35584s68.34688 152.35584 152.35584 152.35584 152.36096-68.34688 152.36096-152.35584-68.34688-152.35584-152.36096-152.35584z m0 261.39136c-60.11904 0-109.0304-48.91648-109.0304-109.04064 0-60.11392 48.91136-109.02528 109.0304-109.02528s109.04064 48.91136 109.04064 109.02528c0 60.12416-48.91648 109.04064-109.04064 109.04064zM648.32 938.81856v0.0256-0.0256z" fill="#2c2c2c" p-id="22374"></path><path d="M648.32512 933.72416c6.94272 0 13.49632-1.3056 19.47648-3.87584l1.17248-0.51712 116.08576-64.33792c18.18112-12.67712 25.20576-37.76 16.128-58.20416-0.1024-0.22528-10.752-24.4736-10.752-47.34976 0-68.02944 55.34208-123.37664 123.3664-123.37664l4.61312 0.00512c16.13312 0 29.3888-14.9504 33.77152-38.08256 0.09728-0.50176 9.43104-49.72544 9.43104-88.192 0-38.58432-9.32864-87.66976-9.43104-88.1664-4.37248-23.15264-17.60768-38.11328-33.72544-38.11328l-4.65408 0.01024c-68.02944 0-123.37152-55.34208-123.37152-123.3664 0-21.57568 9.59488-44.6464 10.69056-47.2064 9.11872-20.54656 2.13504-45.67552-16.2304-58.496l-1.11616-0.768-114.23744-63.3088c-5.87776-2.53952-12.59008-3.88608-19.73248-3.88608-14.81216 0-29.312 5.86752-38.77888 15.68768-14.3104 14.77632-59.55584 53.09952-96.6656 53.09952-37.4272 0-82.944-39.0656-97.32096-54.11328-9.51808-10.03008-24.13568-16.01536-39.10656-16.01536-6.99392 0-13.57824 1.29536-19.57888 3.85024l-1.23392 0.52736L238.9504 154.624c-18.18624 12.65152-25.22112 37.72416-16.13312 58.18368 0.09216 0.2048 10.752 24.79616 10.752 47.34976 0 68.02432-55.34208 123.37152-123.3664 123.37152l-4.70528-0.01024c-16.08192 0-29.30688 14.95552-33.68448 38.09792-0.384 2.03264-9.42592 50.18112-9.42592 88.18688 0 37.55008 9.04192 86.13376 9.42592 88.18688 4.38784 23.1424 17.62304 38.09792 33.72032 38.09792l4.66432-0.01536c68.03456 0 123.37664 55.34208 123.37664 123.3664 0 22.96832-10.6752 47.19104-10.78272 47.42144-9.04192 20.36736-2.05824 45.45536 16.2816 58.29632l1.11616 0.77312L352.256 928.4352c5.85216 2.56 12.52864 3.91168 19.62496 3.91168 14.97088 0 29.53216-6.10816 38.9376-16.34304 13.47072-14.63808 60.544-56.43264 98.82112-56.43264 38.56384 0 84.87936 41.52832 99.47648 57.52832 9.40544 10.40384 24.064 16.61952 39.20896 16.62464z m-7.06048-45.67552c-1.90976-2.05312-17.28-18.63168-39.61344-35.21024-32.70144-24.27904-63.66208-36.58752-92.02688-36.58752-28.10368 0-58.83392 12.07808-91.33056 35.90656-21.48352 15.744-36.43392 31.3856-39.21408 34.36032l-0.72704 0.62976c-1.49504 0.9728-3.86048 1.88416-6.49216 1.88416l-0.5632-0.06656-2.17088-0.59392-108.2112-60.50816 1.8176-4.23936c2.36032-5.49376 14.14656-34.40128 14.14656-64.1792 0-88.74496-69.376-161.86368-157.94176-166.46656l-4.04992-0.20992-0.72704-3.98336c-1.41312-7.82336-8.45824-48.37376-8.45824-78.976 0-30.42304 7.04-71.12192 8.45312-78.97088l0.72192-3.98848 4.05504-0.20992c88.56576-4.608 157.94688-77.73184 157.94688-166.47168 0-29.81888-11.74016-58.60352-14.09536-64.0768l-1.8432-4.2752 115.21024-63.26784 1.19296-0.05632h0.01024c3.48672 0 6.14912 0.98304 7.53152 1.90976l0.65536 0.53248c1.86368 1.92512 17.10592 17.60768 39.00416 33.21856 32.09216 22.86592 62.3104 34.4576 89.82016 34.4576 27.25376 0 57.2416-11.37152 89.12384-33.80224 21.74976-15.28832 36.93568-30.69952 38.59456-32.40448l0.5888-0.51712c1.62816-1.11616 4.32128-2.06848 7.1424-2.06848l2.91328 0.65536 110.336 61.29664-1.82272 4.2496c-2.36032 5.49376-14.1312 34.39616-14.1312 64.13824 0 88.74496 69.38112 161.86368 157.952 166.47168l4.05504 0.20992 0.72192 3.98848c1.408 7.84384 8.45312 48.52224 8.45312 78.976 0 30.60224-7.04512 71.15264-8.45312 78.976l-0.72704 3.98848-4.04992 0.20992c-88.57088 4.59264-157.952 77.71648-157.952 166.46656 0 29.83936 11.75552 58.624 14.11072 64.09216l1.83808 4.27008-113.68448 62.58176h-0.65536c-2.56 0-5.03296-0.64-6.69696-1.7152l-0.75776-0.62464z" fill="#2c2c2c" p-id="22375"></path></svg>