<?xml version="1.0" standalone="no"?><!DOCTYPE svg PUBLIC "-//W3C//DTD SVG 1.1//EN" "http://www.w3.org/Graphics/SVG/1.1/DTD/svg11.dtd"><svg t="1780307551868" class="icon" viewBox="0 0 1024 1024" version="1.1" xmlns="http://www.w3.org/2000/svg" p-id="54568" xmlns:xlink="http://www.w3.org/1999/xlink" width="200" height="200"><path d="M979.541333 917.973333l-226.133333-226.005333a422.4 422.4 0 0 0 95.146667-267.690667A424.192 424.192 0 0 0 424.277333 0 424.192 424.192 0 0 0 0 424.277333a424.192 424.192 0 0 0 424.277333 424.277334 421.973333 421.973333 0 0 0 266.666667-94.336l226.133333 226.090666a44.117333 44.117333 0 1 0 62.464-62.336z m-421.12-175.914666a342.186667 342.186667 0 0 1-134.144 27.050666 344.149333 344.149333 0 0 1-243.882666-100.992 343.509333 343.509333 0 0 1-100.949334-243.84 344.149333 344.149333 0 0 1 100.949334-243.882666 343.509333 343.509333 0 0 1 243.882666-100.949334 344.149333 344.149333 0 0 1 243.84 100.949334A342.314667 342.314667 0 0 1 742.058667 290.133333a342.186667 342.186667 0 0 1 27.050666 134.186667 344.149333 344.149333 0 0 1-100.992 243.84 346.581333 346.581333 0 0 1-109.653333 73.941333z" fill="#2c2c2c" p-id="54569"></path></svg>