<?xml version="1.0" standalone="no"?><!DOCTYPE svg PUBLIC "-//W3C//DTD SVG 1.1//EN" "http://www.w3.org/Graphics/SVG/1.1/DTD/svg11.dtd"><svg t="1780295597311" class="icon" viewBox="0 0 1024 1024" version="1.1" xmlns="http://www.w3.org/2000/svg" p-id="17839" xmlns:xlink="http://www.w3.org/1999/xlink" width="200" height="200"><path d="M651.008 390.016H976.96q19.008 0.96 33.024 14.976t12.992 34.016v536q0.992 20-13.024 34.496t-32.96 14.496H418.976q-19.008 0-32.992-14.496t-13.024-34.496V633.984H47.04q-20-0.96-33.504-14.976T0 584.96V48.992Q0 28.992 13.504 14.496T47.008 0h557.984q19.008 0 33.024 14.496t12.992 34.496v340.992zM47.008 584.96h557.984V48.992H47.04v536z m636-16l-103.008 278.016h46.016l24.96-71.008h113.024l24.992 71.008h44l-102.976-278.016h-47.04z m-23.008 170.016l44.992-126.016 47.008 126.016h-92zM305.984 113.984h35.008v71.04h136v187.968h-36v-21.984h-100v131.008H308v-131.008H211.008v21.984H175.008V184.992h132.992z m-94.976 200h96V220.992h-96v93.024z m129.984 0h100V220.992h-100v93.024z" fill="#212121" p-id="17840"></path></svg>